<svg width="44" height="33" viewBox="0 0 44 33" fill="none" xmlns="http://www.w3.org/2000/svg">
<g clip-path="url(#clip0)">
<path d="M9.94822 32.8376V15.9255L4.70327 11.1272L0 8.46441V29.853C0 31.5044 1.33795 32.8376 2.98453 32.8376H9.94822Z" fill="#4285F4"/>
<path d="M33.8242 32.8376H40.7879C42.4394 32.8376 43.7724 31.4994 43.7724 29.853V8.46458L38.4452 11.5144L33.8242 15.9255V32.8376Z" fill="#34A853"/>
<path d="M9.94806 15.9255L9.23438 9.31745L9.94806 2.99291L21.8859 11.9463L33.8236 2.99291L34.6221 8.976L33.8236 15.9255L21.8859 24.8789L9.94806 15.9255Z" fill="#EA4335"/>
<path d="M33.8242 2.99292V15.9255L43.7724 8.46442V4.4851C43.7724 0.7944 39.5594 -1.30956 36.6099 0.90383L33.8242 2.99292Z" fill="#FBBC04"/>
<path d="M0 8.46429L4.57537 11.896L9.94822 15.9254V2.99279L7.16254 0.9037C4.20793 -1.30987 0 0.79427 0 4.4848V8.46412V8.46429Z" fill="#C5221F"/>
</g>
<defs>
<clipPath id="clip0">
<rect width="43.772" height="33" fill="white"/>
</clipPath>
</defs>
</svg>
