<svg width="50" height="50" viewBox="0 0 50 50" fill="none" xmlns="http://www.w3.org/2000/svg">
<g clip-path="url(#clip0)">
<path d="M33.8281 16.1719C38.7109 21.0547 38.7109 28.9648 33.8281 33.8477C31.3867 36.2891 31.3867 40.2539 33.8281 42.6758C36.2695 45.1172 40.2344 45.1172 42.6758 42.6758C52.4414 32.9102 52.4414 17.0898 42.6758 7.32422L33.8281 16.1719Z" fill="#EA4335"/>
<path d="M42.6562 7.32422C32.8906 -2.44141 17.0898 -2.44141 7.32422 7.32422C-2.44141 17.0898 -2.44141 32.9102 7.32422 42.6758L16.1719 33.8477C11.2891 28.9648 11.2891 21.0547 16.1719 16.1719C21.0547 11.2891 28.9648 11.2891 33.8477 16.1719C36.2891 18.6133 40.2539 18.6133 42.6953 16.1719C45.0977 13.7305 45.0977 9.76562 42.6562 7.32422Z" fill="url(#paint0_linear)"/>
<path d="M42.6562 42.6758L33.8086 33.8477C28.9258 38.7305 21.0156 38.7305 16.1328 33.8477L7.28516 42.6758C17.0898 52.4414 32.8906 52.4414 42.6562 42.6758Z" fill="#FBBC04"/>
<path d="M33.8281 33.8477C36.2695 31.4062 40.2148 31.4062 42.6562 33.8477C45.0977 36.2891 45.0977 40.2539 42.6562 42.6953C40.2148 45.1367 36.2695 45.1367 33.8281 42.6953C31.3867 40.2539 31.3867 36.2891 33.8281 33.8477Z" fill="#EA4335"/>
<path d="M7.32422 33.8477C9.76563 31.4062 13.7109 31.4062 16.1523 33.8477C18.5938 36.2891 18.5938 40.2539 16.1523 42.6953C13.7109 45.1367 9.76563 45.1367 7.32422 42.6953C4.88281 40.2539 4.88281 36.2891 7.32422 33.8477Z" fill="#34A853"/>
</g>
<defs>
<linearGradient id="paint0_linear" x1="0" y1="21.3379" x2="44.4918" y2="21.3379" gradientUnits="userSpaceOnUse">
<stop stop-color="#246FDB"/>
<stop offset="0.0552" stop-color="#2973DF"/>
<stop offset="0.2781" stop-color="#377DEB"/>
<stop offset="0.5491" stop-color="#3F83F2"/>
<stop offset="1" stop-color="#4285F4"/>
</linearGradient>
<clipPath id="clip0">
<rect width="50" height="50" fill="white"/>
</clipPath>
</defs>
</svg>
