<svg width="50" height="45" viewBox="0 0 50 45" fill="none" xmlns="http://www.w3.org/2000/svg">
<g clip-path="url(#clip0)">
<path d="M1.15016 32.501L17.7502 4.08203C19.8588 5.32344 30.4916 11.2078 32.2088 12.327L15.6088 40.7475C13.7933 43.1459 -1.14984 36.1406 1.15016 32.4994V32.501Z" fill="#FBBC04"/>
<path d="M48.8446 32.5004L32.2446 4.08319C29.9239 0.221082 24.9258 -1.18243 20.8205 1.09862C16.7153 3.37968 15.4653 8.29335 17.786 12.3279L34.386 40.7486C36.7067 44.609 41.7049 46.0123 45.8102 43.7314C49.736 41.4502 51.1653 36.3623 48.8446 32.5037V32.5004Z" fill="#4285F4"/>
<path d="M8.33281 44.8297C12.9349 44.8297 16.6656 41.1916 16.6656 36.7039C16.6656 32.2162 12.9349 28.5781 8.33281 28.5781C3.73073 28.5781 0 32.2162 0 36.7039C0 41.1916 3.73073 44.8297 8.33281 44.8297Z" fill="#34A853"/>
</g>
<defs>
<clipPath id="clip0">
<rect width="50" height="44.9219" fill="white"/>
</clipPath>
</defs>
</svg>
