<svg width="82" height="17" viewBox="0 0 82 17" fill="none" xmlns="http://www.w3.org/2000/svg">
<path d="M13.64 9.48794C13.64 10.4266 13.4567 11.3139 13.09 12.1499C12.738 12.9713 12.254 13.6899 11.638 14.3059C11.022 14.9219 10.296 15.4133 9.46 15.7799C8.63867 16.1319 7.75867 16.3079 6.82 16.3079C5.88133 16.3079 4.994 16.1319 4.158 15.7799C3.33667 15.4133 2.618 14.9219 2.002 14.3059C1.386 13.6899 0.894667 12.9713 0.528 12.1499C0.176 11.3139 0 10.4266 0 9.48794V0.577935H2.684V9.48794C2.684 10.0599 2.78667 10.6026 2.992 11.1159C3.212 11.6146 3.50533 12.0546 3.872 12.4359C4.25333 12.8026 4.69333 13.0959 5.192 13.3159C5.70533 13.5213 6.248 13.6239 6.82 13.6239C7.392 13.6239 7.92733 13.5213 8.426 13.3159C8.92467 13.0959 9.35733 12.8026 9.724 12.4359C10.1053 12.0546 10.406 11.6146 10.626 11.1159C10.846 10.6026 10.956 10.0599 10.956 9.48794V6.93594H13.64V9.48794ZM10.736 0.533936H13.42V2.95393H10.736V0.533936Z" fill="black"/>
<path d="M19.85 9.28994H17.166V0.577935H19.85V9.28994ZM17.166 15.9999V13.3159H27.836V15.9999H17.166Z" fill="black"/>
<path d="M32.2718 13.3159H34.9778V15.9999H32.2718V13.3159ZM32.2718 3.10794H27.4098V0.621934H39.8398V3.10794H34.9778V9.39994H32.2718V3.10794Z" fill="black"/>
<path d="M44.9438 0.555935V15.9999H42.2598V0.555935H44.9438Z" fill="black"/>
<path d="M48.4688 0.577935H51.3288L55.9928 7.72794L60.6567 0.577935H63.5168V9.28994H60.8327V4.82394L55.9928 12.0399L51.1087 4.86793V15.9999H48.4688V0.577935ZM63.5168 15.9999H60.8327V13.3159H63.5168V15.9999Z" fill="black"/>
<path d="M68.8353 15.9999H65.9313L72.3992 0.533936H75.1052L78.9333 9.42194H76.1172L73.7412 3.52594L68.8353 15.9999ZM77.6572 13.6239H80.3633L81.3532 15.9999H78.6253L77.6572 13.6239Z" fill="black"/>
</svg>
